<svg xmlns="http://www.w3.org/2000/svg" width="110" height="265" viewBox="0 0 110 265">
    <g fill="#5C6A70" fill-rule="nonzero">
        <g transform="translate(-78)">
            <rect width="145.572" height="13.26" y="208.849" rx="2.581"/>
            <rect width="145.572" height="13.26" y="228.74" rx="2.581"/>
            <path d="M0 8.555v8.555h145.572V8.555c0-4.727-3.832-8.555-8.563-8.555H8.563C3.832 0 0 3.828 0 8.555z"/>
        </g>
        <path d="M101.444 170.931H92.89v-64.138h-.133c5.24-3.9 8.688-10.087 8.688-17.103V71.577L74.144 17H-85.144l-27.3 54.577V89.69c0 7.016 3.447 13.204 8.688 17.103h-.133v64.138h-8.555v85.517H-121V265h231v-8.552h-8.556v-85.517zm-17.11 0h-8.556v-60.324c1.386.282 2.81.462 4.278.462 1.463 0 2.896-.15 4.277-.432v60.294zm-154-94.069h25.709L-44 89.69c0 7.072-5.758 12.827-12.833 12.827-7.076 0-12.834-5.755-12.834-12.827V76.862zm34.222 0h25.666V89.69c0 7.072-5.758 12.827-12.833 12.827-7.076 0-12.833-5.755-12.833-12.827V76.862zm34.222 0h25.666V89.69c0 7.072-5.757 12.827-12.833 12.827-7.075 0-12.833-5.755-12.833-12.827V76.862zm34.222 0h25.667V89.69c0 7.072-5.758 12.827-12.834 12.827C38.758 102.517 33 96.762 33 89.69V76.862zm-.71-8.552l-7.08-42.758h17.543L57.011 68.31H32.29zm-8.616 0H-1.222V25.552h17.765l7.131 42.758zm-33.452 0h-24.896l7.13-42.758h17.766V68.31zm-33.568 0H-68.01l14.258-42.758h17.534l-7.126 42.758zm-30.598 34.194c3.905 5.196 10.12 8.565 17.11 8.565s13.206-3.37 17.112-8.565c3.905 5.196 10.121 8.565 17.11 8.565 6.99 0 13.206-3.37 17.112-8.565 3.906 5.196 10.121 8.565 17.111 8.565s13.206-3.37 17.111-8.565c3.906 5.196 10.121 8.565 17.111 8.565s13.206-3.37 17.111-8.565c1.228 1.638 2.708 3.062 4.35 4.29h-.072v64.137H-78.222v-64.138h-.073c1.643-1.227 3.123-2.65 4.35-4.289zm154 .013c-7.076 0-12.834-5.755-12.834-12.827V76.862H92.89V89.69c0 7.072-5.758 12.827-12.833 12.827zm10.19-34.207H66.028L51.767 25.552h17.09L90.244 68.31zM-79.857 25.552h17.09L-77.03 68.31h-24.216l21.389-42.758zm-24.033 51.31h25.667V89.69c0 7.072-5.758 12.827-12.834 12.827-7.075 0-12.833-5.755-12.833-12.827V76.862zm8.556 33.775c1.381.282 2.814.432 4.277.432 1.468 0 2.892-.18 4.278-.462v60.324h-8.555v-60.294zm-8.556 68.846H92.89v76.965h-8.556v-68.414H58.667v8.552h17.11v59.862H-86.777v-59.862h17.111v-8.552h-25.666v68.414h-8.556v-76.965z"/>
        <path d="M-61 188H50v9H-61z"/>
    </g>
</svg>
