<svg xmlns="http://www.w3.org/2000/svg" width="164" height="265" viewBox="0 0 164 265">
    <g fill="none" fill-rule="evenodd">
        <path fill="#5C6A70" fill-rule="nonzero" d="M9.375 73.574v117.852L125 254.346l115.625-62.92V73.574L125 10.654 9.375 73.574zM0 68.02L125 0l125 68.021V196.98L125 265 0 196.979V68.02z"/>
        <path fill="#5C6A70" fill-rule="nonzero" d="M125 13.568L20.168 68.5 125 123.432 229.832 68.5 125 13.568zM125 3l125 65.5L125 134 0 68.5 125 3z"/>
        <path fill="#5C6A70" d="M125 13l103 56-103 56L22 69z"/>
        <path fill="#5C6A70" d="M125 13v112L19 69z"/>
        <path fill="#5C6A70" fill-rule="nonzero" d="M120 131h9v124h-9z"/>
        <path fill="#5C6A70" d="M28.418 102.414l44.979 24.429a5 5 0 0 1 1.875 7.009l-3.042 4.956a5 5 0 0 1-6.648 1.778l-44.979-24.429a5 5 0 0 1-1.875-7.009l3.042-4.956a5 5 0 0 1 6.648-1.778zM31.606 130.465l20.118 11.652a5 5 0 0 1 1.828 6.82l-3.318 5.766a5 5 0 0 1-6.84 1.832l-20.118-11.652a5 5 0 0 1-1.828-6.82l3.318-5.766a5 5 0 0 1 6.84-1.832z"/>
        <path fill="#5C6A70" fill-rule="nonzero" d="M208.4 3L250 68.9 122.6 134 81 68.1z"/>
        <path fill="#36474F" fill-rule="nonzero" d="M237 65.752L205.48 16 95 72.248 126.52 122z"/>
    </g>
</svg>
