<svg xmlns="http://www.w3.org/2000/svg" width="24" height="24" viewBox="0 0 24 24">
    <g fill="none" fill-rule="nonzero">
        <path fill="#36474F" d="M12 10a4 4 0 1 0 0-8 4 4 0 0 0 0 8zm0 2a6 6 0 1 1 0-12 6 6 0 0 1 0 12z"/>
        <path fill="#36474F" d="M11.82 21.046c1.63 0 3.09.156 5.303.5 3.05.476 3.746.545 4.417.392.365-.083.46-.228.46-1.38C22 15.893 17.576 12 12 12S2 15.893 2 20.558c0 .707.091 1.128.204 1.31.022.037.03.043.168.075.604.144 1.226.08 4.202-.395 2.153-.344 3.613-.502 5.247-.502zm0 2C5.194 23.046 0 26.39 0 20.558 0 14.727 5.373 10 12 10s12 4.727 12 10.558c0 5.831-5.552 2.488-12.18 2.488z"/>
        <path fill="#F01526" d="M6.178 19.04a1 1 0 1 1-.356-1.967 33.67 33.67 0 0 1 5.997-.545c1.985 0 4.098.181 6.34.542a1 1 0 0 1-.318 1.974c-2.14-.344-4.147-.516-6.022-.516-1.87 0-3.75.171-5.641.513z"/>
    </g>
</svg>
